<mxfile host="app.diagrams.net" agent="Mozilla/5.0 (Windows NT 10.0; Win64; x64) AppleWebKit/537.36 (KHTML, like Gecko) Chrome/140.0.0.0 Safari/537.36" version="28.2.0">
  <diagram name="Page-1" id="_s5jUYWdA_LruoprnHJg">
    <mxGraphModel dx="1383" dy="751" grid="1" gridSize="10" guides="1" tooltips="1" connect="1" arrows="1" fold="1" page="1" pageScale="1" pageWidth="827" pageHeight="1169" math="0" shadow="0">
      <root>
        <mxCell id="0" />
        <mxCell id="1" parent="0" />
        <mxCell id="VaS0aEj0p-OVgq9nCMo2-2" value="Korisnik" style="rounded=0;whiteSpace=wrap;html=1;fillColor=#ffe6cc;strokeColor=#d79b00;" vertex="1" parent="1">
          <mxGeometry x="360" y="460" width="80" height="30" as="geometry" />
        </mxCell>
        <mxCell id="VaS0aEj0p-OVgq9nCMo2-3" value="" style="endArrow=none;html=1;rounded=0;entryX=0.5;entryY=0;entryDx=0;entryDy=0;exitX=0.5;exitY=1;exitDx=0;exitDy=0;" edge="1" parent="1" source="VaS0aEj0p-OVgq9nCMo2-5" target="VaS0aEj0p-OVgq9nCMo2-2">
          <mxGeometry width="50" height="50" relative="1" as="geometry">
            <mxPoint x="400" y="410" as="sourcePoint" />
            <mxPoint x="370" y="460" as="targetPoint" />
          </mxGeometry>
        </mxCell>
        <mxCell id="VaS0aEj0p-OVgq9nCMo2-6" value="1" style="edgeLabel;html=1;align=center;verticalAlign=middle;resizable=0;points=[];" vertex="1" connectable="0" parent="VaS0aEj0p-OVgq9nCMo2-3">
          <mxGeometry x="-0.2" relative="1" as="geometry">
            <mxPoint as="offset" />
          </mxGeometry>
        </mxCell>
        <mxCell id="VaS0aEj0p-OVgq9nCMo2-5" value="ima" style="rhombus;whiteSpace=wrap;html=1;fillColor=#dae8fc;strokeColor=#6c8ebf;" vertex="1" parent="1">
          <mxGeometry x="360" y="370" width="80" height="40" as="geometry" />
        </mxCell>
        <mxCell id="VaS0aEj0p-OVgq9nCMo2-8" value="Kategorija" style="rounded=0;whiteSpace=wrap;html=1;fillColor=#ffe6cc;strokeColor=#d79b00;" vertex="1" parent="1">
          <mxGeometry x="360" y="280" width="80" height="30" as="geometry" />
        </mxCell>
        <mxCell id="VaS0aEj0p-OVgq9nCMo2-9" value="" style="endArrow=none;html=1;rounded=0;entryX=0.5;entryY=0;entryDx=0;entryDy=0;exitX=0.5;exitY=1;exitDx=0;exitDy=0;" edge="1" parent="1" source="VaS0aEj0p-OVgq9nCMo2-8" target="VaS0aEj0p-OVgq9nCMo2-5">
          <mxGeometry width="50" height="50" relative="1" as="geometry">
            <mxPoint x="320" y="510" as="sourcePoint" />
            <mxPoint x="370" y="460" as="targetPoint" />
          </mxGeometry>
        </mxCell>
        <mxCell id="VaS0aEj0p-OVgq9nCMo2-10" value="N" style="edgeLabel;html=1;align=center;verticalAlign=middle;resizable=0;points=[];" vertex="1" connectable="0" parent="VaS0aEj0p-OVgq9nCMo2-9">
          <mxGeometry x="-0.3333" relative="1" as="geometry">
            <mxPoint as="offset" />
          </mxGeometry>
        </mxCell>
        <mxCell id="VaS0aEj0p-OVgq9nCMo2-11" value="Transakcija" style="rounded=0;whiteSpace=wrap;html=1;fillColor=#ffe6cc;strokeColor=#d79b00;" vertex="1" parent="1">
          <mxGeometry x="100" y="460" width="80" height="30" as="geometry" />
        </mxCell>
        <mxCell id="VaS0aEj0p-OVgq9nCMo2-12" value="pripada" style="rhombus;whiteSpace=wrap;html=1;fillColor=#dae8fc;strokeColor=#6c8ebf;" vertex="1" parent="1">
          <mxGeometry x="230" y="455" width="80" height="40" as="geometry" />
        </mxCell>
        <mxCell id="VaS0aEj0p-OVgq9nCMo2-13" value="" style="endArrow=none;html=1;rounded=0;exitX=1;exitY=0.5;exitDx=0;exitDy=0;entryX=0;entryY=0.5;entryDx=0;entryDy=0;" edge="1" parent="1" source="VaS0aEj0p-OVgq9nCMo2-12" target="VaS0aEj0p-OVgq9nCMo2-2">
          <mxGeometry width="50" height="50" relative="1" as="geometry">
            <mxPoint x="320" y="510" as="sourcePoint" />
            <mxPoint x="370" y="460" as="targetPoint" />
          </mxGeometry>
        </mxCell>
        <mxCell id="VaS0aEj0p-OVgq9nCMo2-15" value="1" style="edgeLabel;html=1;align=center;verticalAlign=middle;resizable=0;points=[];" vertex="1" connectable="0" parent="VaS0aEj0p-OVgq9nCMo2-13">
          <mxGeometry x="0.16" y="1" relative="1" as="geometry">
            <mxPoint as="offset" />
          </mxGeometry>
        </mxCell>
        <mxCell id="VaS0aEj0p-OVgq9nCMo2-14" value="" style="endArrow=none;html=1;rounded=0;exitX=1;exitY=0.5;exitDx=0;exitDy=0;entryX=0;entryY=0.5;entryDx=0;entryDy=0;" edge="1" parent="1" source="VaS0aEj0p-OVgq9nCMo2-11" target="VaS0aEj0p-OVgq9nCMo2-12">
          <mxGeometry width="50" height="50" relative="1" as="geometry">
            <mxPoint x="320" y="510" as="sourcePoint" />
            <mxPoint x="370" y="460" as="targetPoint" />
          </mxGeometry>
        </mxCell>
        <mxCell id="VaS0aEj0p-OVgq9nCMo2-16" value="N" style="edgeLabel;html=1;align=center;verticalAlign=middle;resizable=0;points=[];" vertex="1" connectable="0" parent="VaS0aEj0p-OVgq9nCMo2-14">
          <mxGeometry x="0.16" y="2" relative="1" as="geometry">
            <mxPoint as="offset" />
          </mxGeometry>
        </mxCell>
        <mxCell id="VaS0aEj0p-OVgq9nCMo2-17" value="ima" style="rhombus;whiteSpace=wrap;html=1;fillColor=#dae8fc;strokeColor=#6c8ebf;" vertex="1" parent="1">
          <mxGeometry x="360" y="545" width="80" height="40" as="geometry" />
        </mxCell>
        <mxCell id="VaS0aEj0p-OVgq9nCMo2-19" value="pripada" style="rhombus;whiteSpace=wrap;html=1;fillColor=#dae8fc;strokeColor=#6c8ebf;direction=east;rotation=-30;" vertex="1" parent="1">
          <mxGeometry x="210" y="360" width="80" height="40" as="geometry" />
        </mxCell>
        <mxCell id="VaS0aEj0p-OVgq9nCMo2-21" value="CiljStednje" style="rounded=0;whiteSpace=wrap;html=1;fillColor=#ffe6cc;strokeColor=#d79b00;" vertex="1" parent="1">
          <mxGeometry x="360" y="650" width="80" height="30" as="geometry" />
        </mxCell>
        <mxCell id="VaS0aEj0p-OVgq9nCMo2-23" value="" style="endArrow=none;html=1;rounded=0;exitX=0.5;exitY=0;exitDx=0;exitDy=0;entryX=0;entryY=0.5;entryDx=0;entryDy=0;" edge="1" parent="1" source="VaS0aEj0p-OVgq9nCMo2-11" target="VaS0aEj0p-OVgq9nCMo2-19">
          <mxGeometry width="50" height="50" relative="1" as="geometry">
            <mxPoint x="320" y="510" as="sourcePoint" />
            <mxPoint x="370" y="460" as="targetPoint" />
          </mxGeometry>
        </mxCell>
        <mxCell id="VaS0aEj0p-OVgq9nCMo2-33" value="N" style="edgeLabel;html=1;align=center;verticalAlign=middle;resizable=0;points=[];" vertex="1" connectable="0" parent="VaS0aEj0p-OVgq9nCMo2-23">
          <mxGeometry x="-0.0273" y="1" relative="1" as="geometry">
            <mxPoint as="offset" />
          </mxGeometry>
        </mxCell>
        <mxCell id="VaS0aEj0p-OVgq9nCMo2-25" value="" style="endArrow=none;html=1;rounded=0;exitX=1;exitY=0.5;exitDx=0;exitDy=0;entryX=0;entryY=0.5;entryDx=0;entryDy=0;" edge="1" parent="1" source="VaS0aEj0p-OVgq9nCMo2-19" target="VaS0aEj0p-OVgq9nCMo2-8">
          <mxGeometry width="50" height="50" relative="1" as="geometry">
            <mxPoint x="320" y="510" as="sourcePoint" />
            <mxPoint x="370" y="460" as="targetPoint" />
          </mxGeometry>
        </mxCell>
        <mxCell id="VaS0aEj0p-OVgq9nCMo2-32" value="1" style="edgeLabel;html=1;align=center;verticalAlign=middle;resizable=0;points=[];" vertex="1" connectable="0" parent="VaS0aEj0p-OVgq9nCMo2-25">
          <mxGeometry x="0.0778" y="-3" relative="1" as="geometry">
            <mxPoint as="offset" />
          </mxGeometry>
        </mxCell>
        <mxCell id="VaS0aEj0p-OVgq9nCMo2-26" value="" style="endArrow=none;html=1;rounded=0;exitX=0.5;exitY=1;exitDx=0;exitDy=0;entryX=0.5;entryY=0;entryDx=0;entryDy=0;" edge="1" parent="1" source="VaS0aEj0p-OVgq9nCMo2-2" target="VaS0aEj0p-OVgq9nCMo2-17">
          <mxGeometry width="50" height="50" relative="1" as="geometry">
            <mxPoint x="320" y="510" as="sourcePoint" />
            <mxPoint x="370" y="460" as="targetPoint" />
          </mxGeometry>
        </mxCell>
        <mxCell id="VaS0aEj0p-OVgq9nCMo2-28" value="1" style="edgeLabel;html=1;align=center;verticalAlign=middle;resizable=0;points=[];" vertex="1" connectable="0" parent="VaS0aEj0p-OVgq9nCMo2-26">
          <mxGeometry x="0.025" y="2" relative="1" as="geometry">
            <mxPoint as="offset" />
          </mxGeometry>
        </mxCell>
        <mxCell id="VaS0aEj0p-OVgq9nCMo2-30" value="" style="endArrow=none;dashed=1;html=1;dashPattern=1 3;strokeWidth=2;rounded=0;exitX=0.5;exitY=1;exitDx=0;exitDy=0;entryX=0.5;entryY=0;entryDx=0;entryDy=0;" edge="1" parent="1" source="VaS0aEj0p-OVgq9nCMo2-17" target="VaS0aEj0p-OVgq9nCMo2-21">
          <mxGeometry width="50" height="50" relative="1" as="geometry">
            <mxPoint x="320" y="510" as="sourcePoint" />
            <mxPoint x="370" y="460" as="targetPoint" />
          </mxGeometry>
        </mxCell>
        <mxCell id="VaS0aEj0p-OVgq9nCMo2-31" value="N" style="edgeLabel;html=1;align=center;verticalAlign=middle;resizable=0;points=[];" vertex="1" connectable="0" parent="VaS0aEj0p-OVgq9nCMo2-30">
          <mxGeometry x="0.125" y="1" relative="1" as="geometry">
            <mxPoint as="offset" />
          </mxGeometry>
        </mxCell>
        <mxCell id="VaS0aEj0p-OVgq9nCMo2-34" value="doprinosi" style="rhombus;whiteSpace=wrap;html=1;fillColor=#dae8fc;strokeColor=#6c8ebf;rotation=30;" vertex="1" parent="1">
          <mxGeometry x="210" y="565" width="80" height="40" as="geometry" />
        </mxCell>
        <mxCell id="VaS0aEj0p-OVgq9nCMo2-35" value="N" style="endArrow=none;dashed=1;html=1;dashPattern=1 3;strokeWidth=2;rounded=0;exitX=0.5;exitY=1;exitDx=0;exitDy=0;entryX=0;entryY=0.5;entryDx=0;entryDy=0;" edge="1" parent="1" source="VaS0aEj0p-OVgq9nCMo2-11" target="VaS0aEj0p-OVgq9nCMo2-34">
          <mxGeometry x="0.0641" width="50" height="50" relative="1" as="geometry">
            <mxPoint x="320" y="510" as="sourcePoint" />
            <mxPoint x="370" y="460" as="targetPoint" />
            <mxPoint as="offset" />
          </mxGeometry>
        </mxCell>
        <mxCell id="VaS0aEj0p-OVgq9nCMo2-36" value="" style="endArrow=none;dashed=1;html=1;dashPattern=1 3;strokeWidth=2;rounded=0;exitX=1;exitY=0.5;exitDx=0;exitDy=0;" edge="1" parent="1" source="VaS0aEj0p-OVgq9nCMo2-34">
          <mxGeometry width="50" height="50" relative="1" as="geometry">
            <mxPoint x="290.0010161513775" y="605" as="sourcePoint" />
            <mxPoint x="360" y="665" as="targetPoint" />
          </mxGeometry>
        </mxCell>
        <mxCell id="VaS0aEj0p-OVgq9nCMo2-41" value="1" style="edgeLabel;html=1;align=center;verticalAlign=middle;resizable=0;points=[];" vertex="1" connectable="0" parent="VaS0aEj0p-OVgq9nCMo2-36">
          <mxGeometry x="-0.0019" y="1" relative="1" as="geometry">
            <mxPoint as="offset" />
          </mxGeometry>
        </mxCell>
        <mxCell id="VaS0aEj0p-OVgq9nCMo2-42" value="Korisnik" style="swimlane;whiteSpace=wrap;html=1;fillColor=#ffe6cc;strokeColor=#d79b00;startSize=23;" vertex="1" parent="1">
          <mxGeometry x="100" y="720" width="150" height="110" as="geometry" />
        </mxCell>
        <mxCell id="VaS0aEj0p-OVgq9nCMo2-47" value="&lt;strong data-end=&quot;265&quot; data-start=&quot;256&quot;&gt;pk id&lt;/strong&gt; : SERIAL&lt;div&gt;ime : VARCHAR(100)&lt;/div&gt;&lt;div&gt;email : VARCHAR(100)&amp;nbsp;&lt;/div&gt;&lt;div&gt;lozinka : VARCHAR(255)&lt;/div&gt;&lt;div&gt;datum_reg : TIMESTAMP&lt;/div&gt;" style="text;html=1;align=center;verticalAlign=middle;resizable=0;points=[];autosize=1;strokeColor=none;fillColor=none;" vertex="1" parent="VaS0aEj0p-OVgq9nCMo2-42">
          <mxGeometry x="-10" y="20" width="160" height="90" as="geometry" />
        </mxCell>
        <mxCell id="VaS0aEj0p-OVgq9nCMo2-43" value="Kategorija" style="swimlane;whiteSpace=wrap;html=1;fillColor=#ffe6cc;strokeColor=#d79b00;" vertex="1" parent="1">
          <mxGeometry x="330" y="720" width="290" height="90" as="geometry" />
        </mxCell>
        <mxCell id="VaS0aEj0p-OVgq9nCMo2-48" value="&lt;strong data-end=&quot;428&quot; data-start=&quot;419&quot;&gt;pk id&lt;/strong&gt; : SERIAL&lt;div&gt;naziv : VARCHAR(100)&lt;/div&gt;&lt;div&gt;tip : VARCHAR(10) CHECK (‘PRIHOD’ | ‘TROSAK’)&lt;/div&gt;&lt;div&gt;&lt;b&gt;fk&lt;/b&gt; korisnik.id&lt;/div&gt;" style="text;html=1;align=center;verticalAlign=middle;resizable=0;points=[];autosize=1;strokeColor=none;fillColor=none;" vertex="1" parent="VaS0aEj0p-OVgq9nCMo2-43">
          <mxGeometry x="-10" y="22.5" width="300" height="70" as="geometry" />
        </mxCell>
        <mxCell id="VaS0aEj0p-OVgq9nCMo2-44" value="Transakcija" style="swimlane;whiteSpace=wrap;html=1;fillColor=#ffe6cc;strokeColor=#d79b00;" vertex="1" parent="1">
          <mxGeometry x="450" y="870" width="142.5" height="130" as="geometry" />
        </mxCell>
        <mxCell id="VaS0aEj0p-OVgq9nCMo2-50" value="&lt;strong data-end=&quot;864&quot; data-start=&quot;855&quot;&gt;pk id&lt;/strong&gt; : SERIAL&lt;div&gt;iznos : NUMERIC(12,2)&lt;/div&gt;&lt;div&gt;datum : DATE&lt;/div&gt;&lt;div&gt;opis : TEXT&lt;/div&gt;&lt;div&gt;&lt;b&gt;fk&lt;/b&gt; korisnik.id&lt;/div&gt;&lt;div&gt;&lt;b&gt;fk&lt;/b&gt; kategorija.id&lt;/div&gt;&lt;div&gt;&lt;b&gt;fk &lt;/b&gt;cilj_stednje.id&amp;nbsp;&lt;/div&gt;" style="text;html=1;align=center;verticalAlign=middle;resizable=0;points=[];autosize=1;strokeColor=none;fillColor=none;" vertex="1" parent="VaS0aEj0p-OVgq9nCMo2-44">
          <mxGeometry x="-7.5" y="20" width="150" height="110" as="geometry" />
        </mxCell>
        <mxCell id="VaS0aEj0p-OVgq9nCMo2-45" value="CILJ_STEDNJE" style="swimlane;whiteSpace=wrap;html=1;fillColor=#ffe6cc;strokeColor=#d79b00;" vertex="1" parent="1">
          <mxGeometry x="90" y="870" width="265" height="130" as="geometry" />
        </mxCell>
        <mxCell id="VaS0aEj0p-OVgq9nCMo2-49" value="&lt;strong data-end=&quot;625&quot; data-start=&quot;616&quot;&gt;pk id&lt;/strong&gt; : SERIAL&lt;div&gt;naziv : VARCHAR(100)&lt;/div&gt;&lt;div&gt;cilj_iznos : NUMERIC(12,2)&lt;/div&gt;&lt;div&gt;trenutno_stanje : NUMERIC(12,2) DEFAULT 0&lt;/div&gt;&lt;div&gt;datum_pocetka : DATE&lt;/div&gt;&lt;div&gt;datum_kraja : DATE&lt;/div&gt;&lt;div&gt;&lt;b&gt;fk&lt;/b&gt;&amp;nbsp;korisnik.id&lt;/div&gt;" style="text;html=1;align=center;verticalAlign=middle;resizable=0;points=[];autosize=1;strokeColor=none;fillColor=none;" vertex="1" parent="VaS0aEj0p-OVgq9nCMo2-45">
          <mxGeometry x="-5" y="20" width="270" height="110" as="geometry" />
        </mxCell>
      </root>
    </mxGraphModel>
  </diagram>
</mxfile>
